<svg width="1800" height="900" viewBox="0 0 1800 900" fill="none" xmlns="http://www.w3.org/2000/svg">
<rect width="1800" height="900" fill="#F1F1E9"/>
<path d="M582.688 521.271L459.438 587.328L337.5 521.271L376.248 500.326L459.438 545.438L543.502 500.326L582.688 521.271ZM878.832 493.294C878.832 514.13 891.518 524.87 909.578 524.87C929.143 524.87 943.763 513.486 943.763 486.85V404.149H983.538V557.307H943.548V540.122C934.518 553.87 918.393 561.603 897.538 561.603C864.428 561.603 838.843 539.048 838.843 498.234V404.149H878.832V493.294ZM1277.23 399.636C1323.02 399.636 1355.7 435.509 1355.7 480.618C1355.7 486.633 1355.06 491.788 1354.2 496.943H1237.24C1243.04 517.135 1259.81 525.728 1280.67 525.728C1296.36 525.727 1308.83 519.283 1315.5 510.477L1347.75 528.735C1333.34 549.571 1310.12 561.601 1280.24 561.601C1228.21 561.601 1195.31 526.372 1195.31 480.618C1195.31 434.864 1228.42 399.636 1277.23 399.636ZM1115.54 402.877C1115.54 360.56 1138.98 335.857 1188.43 338.864V376.885C1167.57 375.381 1155.53 382.041 1155.53 402.877V404.38H1188.43V442.401H1155.53V557.538H1115.54V442.401H1069.54V557.538H1029.55V442.401H1007.19V404.38H1029.55V402.877C1029.55 360.56 1052.98 335.857 1102.43 338.864V376.885C1081.79 375.381 1069.54 382.041 1069.54 402.877V404.38H1115.54V402.877ZM1460.62 445.186C1439.77 442.608 1413.54 451.845 1413.54 484.066V557.315H1373.55V404.157H1413.54V430.579C1421.49 409.743 1441.06 401.15 1460.62 401.15V445.186ZM744.458 342.724C781.223 342.724 810.464 367.211 810.464 403.084C810.464 421.557 802.724 435.95 790.039 446.046C807.454 455.927 818.633 472.897 819.063 495.021C819.063 531.754 788.963 557.102 751.338 557.102H659.104V342.724H744.458ZM701.889 517.792H751.124C765.744 517.792 776.278 507.051 776.278 492.444C776.278 478.052 765.744 467.312 751.124 467.312H701.889V517.792ZM582.688 448.229L459.438 508.23L337.5 448.229L376.248 429.138L459.438 470.048L543.502 429.138L582.688 448.229ZM1277.23 435.509C1255.73 435.509 1241.11 446.893 1236.59 466.44H1315.71C1310.77 444.316 1294 435.509 1277.23 435.509ZM582.688 373.664L459.438 437.049L337.5 373.664L459.438 310.5L582.688 373.664ZM701.889 429.721H744.673C758.003 429.721 767.894 419.625 767.894 406.092C767.894 392.559 758.433 382.463 744.673 382.463H701.889V429.721Z" fill="#283F3E"/>
</svg>
